CalSansUI-Bold.ufo
<glyph name="percent" format="2">
  <advance width="741"/>
  <unicode hex="0025"/>
  <outline>
    <contour>
      <point x="67" y="0" type="line"/>
      <point x="177" y="0" type="line"/>
      <point x="674" y="700" type="line"/>
      <point x="565" y="700" type="line"/>
    </contour>
    <contour>
      <point x="540" y="-8" type="curve" smooth="yes"/>
      <point x="631" y="-8"/>
      <point x="696" y="60"/>
      <point x="696" y="144" type="curve" smooth="yes"/>
      <point x="696" y="229"/>
      <point x="631" y="299"/>
      <point x="540" y="299" type="curve" smooth="yes"/>
      <point x="449" y="299"/>
      <point x="385" y="229"/>
      <point x="385" y="144" type="curve" smooth="yes"/>
      <point x="385" y="60"/>
      <point x="449" y="-8"/>
    </contour>
    <contour>
      <point x="540" y="72" type="curve" smooth="yes"/>
      <point x="499" y="72"/>
      <point x="471" y="104"/>
      <point x="471" y="144" type="curve" smooth="yes"/>
      <point x="471" y="186"/>
      <point x="499" y="218"/>
      <point x="540" y="218" type="curve" smooth="yes"/>
      <point x="581" y="218"/>
      <point x="609" y="186"/>
      <point x="609" y="144" type="curve" smooth="yes"/>
      <point x="611" y="103"/>
      <point x="582" y="71"/>
    </contour>
    <contour>
      <point x="200" y="401" type="curve" smooth="yes"/>
      <point x="291" y="401"/>
      <point x="356" y="469"/>
      <point x="356" y="553" type="curve" smooth="yes"/>
      <point x="356" y="637"/>
      <point x="292" y="708"/>
      <point x="200" y="708" type="curve" smooth="yes"/>
      <point x="109" y="708"/>
      <point x="45" y="638"/>
      <point x="45" y="553" type="curve" smooth="yes"/>
      <point x="45" y="469"/>
      <point x="109" y="401"/>
    </contour>
    <contour>
      <point x="200" y="481" type="curve" smooth="yes"/>
      <point x="159" y="481"/>
      <point x="131" y="513"/>
      <point x="131" y="553" type="curve" smooth="yes"/>
      <point x="131" y="595"/>
      <point x="159" y="627"/>
      <point x="200" y="627" type="curve" smooth="yes"/>
      <point x="242" y="627"/>
      <point x="269" y="595"/>
      <point x="269" y="553" type="curve" smooth="yes"/>
      <point x="271" y="512"/>
      <point x="243" y="481"/>
    </contour>
  </outline>
</glyph>
<glyph name="parenleft" format="2">
  <advance width="368"/>
  <unicode hex="0028"/>
  <outline>
    <contour>
      <point x="210" y="-214" type="curve"/>
      <point x="328" y="-151" type="line"/>
      <point x="169" y="141"/>
      <point x="163" y="489"/>
      <point x="328" y="740" type="curve"/>
      <point x="210" y="803" type="line"/>
      <point x="24" y="545"/>
      <point x="23" y="65"/>
    </contour>
  </outline>
</glyph>
<glyph name="plus" format="2">
  <advance width="596"/>
  <unicode hex="002B"/>
  <outline>
    <contour>
      <point x="72" y="261" type="line"/>
      <point x="524" y="261" type="line"/>
      <point x="524" y="371" type="line"/>
      <point x="72" y="371" type="line"/>
    </contour>
    <contour>
      <point x="240" y="84" type="line"/>
      <point x="356" y="84" type="line"/>
      <point x="356" y="546" type="line"/>
      <point x="240" y="546" type="line"/>
    </contour>
  </outline>
</glyph>
<glyph name="hyphen" format="2">
  <advance width="386"/>
  <unicode hex="002D"/>
  <outline>
    <contour>
      <point x="50" y="210" type="line"/>
      <point x="336" y="210" type="line"/>
      <point x="336" y="341" type="line"/>
      <point x="50" y="341" type="line"/>
    </contour>
  </outline>
</glyph>
<glyph name="zero" format="2">
  <advance width="674"/>
  <unicode hex="0030"/>
  <outline>
    <contour>
      <point x="337" y="-13" type="curve" smooth="yes"/>
      <point x="498" y="-13"/>
      <point x="609" y="109"/>
      <point x="609" y="259" type="curve" smooth="yes"/>
      <point x="609" y="439" type="line" smooth="yes"/>
      <point x="609" y="589"/>
      <point x="498" y="711"/>
      <point x="337" y="711" type="curve" smooth="yes"/>
      <point x="176" y="711"/>
      <point x="65" y="589"/>
      <point x="65" y="439" type="curve" smooth="yes"/>
      <point x="65" y="259" type="line" smooth="yes"/>
      <point x="65" y="109"/>
      <point x="176" y="-13"/>
    </contour>
    <contour>
      <point x="337" y="117" type="curve" smooth="yes"/>
      <point x="251" y="117"/>
      <point x="210" y="184"/>
      <point x="210" y="275" type="curve" smooth="yes"/>
      <point x="210" y="422" type="line" smooth="yes"/>
      <point x="210" y="523"/>
      <point x="251" y="581"/>
      <point x="337" y="581" type="curve" smooth="yes"/>
      <point x="423" y="581"/>
      <point x="464" y="523"/>
      <point x="464" y="422" type="curve" smooth="yes"/>
      <point x="464" y="275" type="line" smooth="yes"/>
      <point x="464" y="184"/>
      <point x="423" y="117"/>
    </contour>
  </outline>
</glyph>
<glyph name="two" format="2">
  <advance width="613"/>
  <unicode hex="0032"/>
  <outline>
    <contour>
      <point x="38" y="0" type="line"/>
      <point x="537" y="0" type="line"/>
      <point x="537" y="123" type="line"/>
      <point x="294" y="121" type="line"/>
      <point x="294" y="124" type="line"/>
      <point x="314" y="135"/>
      <point x="351" y="171"/>
      <point x="380" y="209" type="curve" smooth="yes"/>
      <point x="472" y="329" type="line" smooth="yes"/>
      <point x="518" y="388"/>
      <point x="533" y="434"/>
      <point x="533" y="490" type="curve" smooth="yes"/>
      <point x="533" y="614"/>
      <point x="432" y="713"/>
      <point x="287" y="713" type="curve" smooth="yes"/>
      <point x="143" y="713"/>
      <point x="38" y="614"/>
      <point x="38" y="470" type="curve"/>
      <point x="183" y="470" type="line"/>
      <point x="183" y="542"/>
      <point x="220" y="583"/>
      <point x="285" y="583" type="curve" smooth="yes"/>
      <point x="350" y="583"/>
      <point x="388" y="542"/>
      <point x="388" y="482" type="curve" smooth="yes"/>
      <point x="388" y="439"/>
      <point x="360" y="395"/>
      <point x="318" y="346" type="curve" smooth="yes"/>
      <point x="38" y="16" type="line"/>
    </contour>
  </outline>
</glyph>
<glyph name="seven" format="2">
  <advance width="540"/>
  <unicode hex="0037"/>
  <outline>
    <contour>
      <point x="91" y="0" type="line"/>
      <point x="241" y="0" type="line"/>
      <point x="524" y="685" type="line"/>
      <point x="524" y="700" type="line"/>
      <point x="20" y="700" type="line"/>
      <point x="20" y="577" type="line"/>
      <point x="329" y="577" type="line"/>
      <point x="329" y="574" type="line"/>
      <point x="321" y="565"/>
      <point x="315" y="555"/>
      <point x="311" y="544" type="curve" smooth="yes"/>
    </contour>
  </outline>
</glyph>
<glyph name="B" format="2">
  <advance width="638"/>
  <unicode hex="0042"/>
  <anchor x="332" y="0" name="bottom"/>
  <anchor x="328" y="700" name="top"/>
  <outline>
    <contour>
      <point x="80" y="0" type="line"/>
      <point x="341" y="0" type="line" smooth="yes"/>
      <point x="493" y="0"/>
      <point x="589" y="76"/>
      <point x="589" y="193" type="curve" smooth="yes"/>
      <point x="589" y="311"/>
      <point x="487" y="365"/>
      <point x="433" y="371" type="curve"/>
      <point x="433" y="377" type="line"/>
      <point x="486" y="388"/>
      <point x="550" y="421"/>
      <point x="550" y="516" type="curve" smooth="yes"/>
      <point x="550" y="625"/>
      <point x="468" y="700"/>
      <point x="316" y="700" type="curve" smooth="yes"/>
      <point x="80" y="700" type="line"/>
    </contour>
    <contour>
      <point x="220" y="135" type="line"/>
      <point x="220" y="289" type="line"/>
      <point x="338" y="289" type="line" smooth="yes"/>
      <point x="404" y="289"/>
      <point x="447" y="266"/>
      <point x="447" y="211" type="curve" smooth="yes"/>
      <point x="447" y="154"/>
      <point x="404" y="135"/>
      <point x="338" y="135" type="curve" smooth="yes"/>
    </contour>
    <contour>
      <point x="220" y="419" type="line"/>
      <point x="220" y="565" type="line"/>
      <point x="313" y="565" type="line" smooth="yes"/>
      <point x="379" y="565"/>
      <point x="408" y="545"/>
      <point x="408" y="493" type="curve" smooth="yes"/>
      <point x="408" y="441"/>
      <point x="379" y="419"/>
      <point x="313" y="419" type="curve" smooth="yes"/>
    </contour>
  </outline>
</glyph>
<glyph name="J" format="2">
  <advance width="484"/>
  <unicode hex="004A"/>
  <anchor x="193" y="0" name="bottom"/>
  <anchor x="256" y="0" name="ogonek"/>
  <anchor x="339" y="700" name="top"/>
  <outline>
    <contour>
      <point x="193" y="-13" type="curve" smooth="yes"/>
      <point x="333" y="-13"/>
      <point x="409" y="56"/>
      <point x="409" y="200" type="curve" smooth="yes"/>
      <point x="409" y="700" type="line"/>
      <point x="269" y="700" type="line"/>
      <point x="269" y="191" type="line" smooth="yes"/>
      <point x="269" y="145"/>
      <point x="237" y="117"/>
      <point x="197" y="117" type="curve" smooth="yes"/>
      <point x="162" y="117"/>
      <point x="136" y="136"/>
      <point x="120" y="157" type="curve"/>
      <point x="32" y="48" type="line"/>
      <point x="80" y="8"/>
      <point x="133" y="-13"/>
    </contour>
  </outline>
</glyph>
<glyph name="T" format="2">
  <advance width="630"/>
  <unicode hex="0054"/>
  <anchor x="315" y="0" name="bottom"/>
  <anchor x="315" y="323" name="center"/>
  <anchor x="289" y="0" name="ogonek"/>
  <anchor x="315" y="700" name="top"/>
  <outline>
    <contour>
      <point x="245" y="0" type="line"/>
      <point x="385" y="0" type="line"/>
      <point x="385" y="635" type="line"/>
      <point x="245" y="635" type="line"/>
    </contour>
    <contour>
      <point x="45" y="565" type="line"/>
      <point x="585" y="565" type="line"/>
      <point x="585" y="700" type="line"/>
      <point x="45" y="700" type="line"/>
    </contour>
  </outline>
</glyph>
<glyph name="U" format="2">
  <advance width="706"/>
  <unicode hex="0055"/>
  <anchor x="353" y="0" name="bottom"/>
  <anchor x="352" y="0" name="ogonek"/>
  <anchor x="353" y="684" name="top"/>
  <anchor x="353" y="647" name="top_ring"/>
  <anchor x="644" y="700" name="topright"/>
  <outline>
    <contour>
      <point x="353" y="-13" type="curve" smooth="yes"/>
      <point x="524" y="-13"/>
      <point x="636" y="99"/>
      <point x="636" y="259" type="curve" smooth="yes"/>
      <point x="636" y="700" type="line"/>
      <point x="496" y="700" type="line"/>
      <point x="496" y="274" type="line" smooth="yes"/>
      <point x="496" y="175"/>
      <point x="449" y="117"/>
      <point x="353" y="117" type="curve" smooth="yes"/>
      <point x="257" y="117"/>
      <point x="210" y="175"/>
      <point x="210" y="274" type="curve" smooth="yes"/>
      <point x="210" y="700" type="line"/>
      <point x="70" y="700" type="line"/>
      <point x="70" y="259" type="line" smooth="yes"/>
      <point x="70" y="99"/>
      <point x="182" y="-13"/>
    </contour>
  </outline>
</glyph>
<glyph name="W" format="2">
  <advance width="1108"/>
  <unicode hex="0057"/>
  <anchor x="554" y="0" name="bottom"/>
  <anchor x="554" y="700" name="top"/>
  <outline>
    <contour>
      <point x="257" y="0" type="line"/>
      <point x="383" y="0" type="line"/>
      <point x="525" y="395" type="line" smooth="yes"/>
      <point x="544" y="448"/>
      <point x="547" y="475"/>
      <point x="551" y="501" type="curve"/>
      <point x="555" y="501" type="line"/>
      <point x="559" y="475"/>
      <point x="564" y="449"/>
      <point x="583" y="395" type="curve" smooth="yes"/>
      <point x="725" y="0" type="line"/>
      <point x="851" y="0" type="line"/>
      <point x="1085" y="700" type="line"/>
      <point x="925" y="700" type="line"/>
      <point x="813" y="304" type="line" smooth="yes"/>
      <point x="796" y="250"/>
      <point x="792" y="224"/>
      <point x="787" y="198" type="curve"/>
      <point x="783" y="198" type="line"/>
      <point x="778" y="224"/>
      <point x="775" y="250"/>
      <point x="756" y="304" type="curve" smooth="yes"/>
      <point x="617" y="700" type="line"/>
      <point x="491" y="700" type="line"/>
      <point x="352" y="304" type="line" smooth="yes"/>
      <point x="335" y="250"/>
      <point x="330" y="224"/>
      <point x="325" y="198" type="curve"/>
      <point x="321" y="198" type="line"/>
      <point x="316" y="224"/>
      <point x="310" y="249"/>
      <point x="295" y="304" type="curve" smooth="yes"/>
      <point x="183" y="700" type="line"/>
      <point x="23" y="700" type="line"/>
    </contour>
  </outline>
</glyph>
<glyph name="Y" format="2">
  <advance width="622"/>
  <unicode hex="0059"/>
  <anchor x="313" y="0" name="bottom"/>
  <anchor x="313" y="700" name="top"/>
  <anchor x="20" y="700" name="topleft"/>
  <outline>
    <contour>
      <point x="241" y="0" type="line"/>
      <point x="381" y="0" type="line"/>
      <point x="381" y="278" type="line"/>
      <point x="618" y="700" type="line"/>
      <point x="465" y="700" type="line"/>
      <point x="381" y="539" type="line" smooth="yes"/>
      <point x="339" y="460"/>
      <point x="321" y="407"/>
      <point x="317" y="395" type="curve"/>
      <point x="314" y="395" type="line"/>
      <point x="311" y="407"/>
      <point x="292" y="455"/>
      <point x="247" y="538" type="curve" smooth="yes"/>
      <point x="158" y="700" type="line"/>
      <point x="4" y="700" type="line"/>
      <point x="241" y="281" type="line"/>
    </contour>
  </outline>
</glyph>
<glyph name="m" format="2">
  <advance width="930"/>
  <unicode hex="006D"/>
  <anchor x="472" y="0" name="bottom"/>
  <anchor x="730" y="0" name="ogonek"/>
  <anchor x="476" y="505" name="top"/>
  <outline>
    <contour>
      <point x="70" y="0" type="line"/>
      <point x="205" y="0" type="line"/>
      <point x="205" y="290" type="line" smooth="yes"/>
      <point x="205" y="357"/>
      <point x="243" y="399"/>
      <point x="303" y="399" type="curve" smooth="yes"/>
      <point x="366" y="399"/>
      <point x="405" y="357"/>
      <point x="405" y="290" type="curve" smooth="yes"/>
      <point x="405" y="0" type="line"/>
      <point x="540" y="0" type="line"/>
      <point x="540" y="290" type="line" smooth="yes"/>
      <point x="540" y="357"/>
      <point x="577" y="399"/>
      <point x="636" y="399" type="curve" smooth="yes"/>
      <point x="694" y="399"/>
      <point x="730" y="357"/>
      <point x="730" y="290" type="curve" smooth="yes"/>
      <point x="730" y="0" type="line"/>
      <point x="865" y="0" type="line"/>
      <point x="865" y="323" type="line" smooth="yes"/>
      <point x="865" y="434"/>
      <point x="784" y="518"/>
      <point x="677" y="518" type="curve" smooth="yes"/>
      <point x="606" y="518"/>
      <point x="541" y="485"/>
      <point x="508" y="433" type="curve"/>
      <point x="502" y="433" type="line"/>
      <point x="474" y="485"/>
      <point x="416" y="518"/>
      <point x="352" y="518" type="curve" smooth="yes"/>
      <point x="293" y="518"/>
      <point x="236" y="487"/>
      <point x="207" y="437" type="curve"/>
      <point x="201" y="437" type="line"/>
      <point x="201" y="505" type="line"/>
      <point x="70" y="505" type="line"/>
    </contour>
  </outline>
</glyph>
<glyph name="x" format="2">
  <advance width="575"/>
  <unicode hex="0078"/>
  <anchor x="288" y="0" name="bottom"/>
  <anchor x="288" y="505" name="top"/>
  <outline>
    <contour>
      <point x="20" y="0" type="line"/>
      <point x="181" y="0" type="line"/>
      <point x="286" y="163" type="line"/>
      <point x="290" y="163" type="line"/>
      <point x="391" y="0" type="line"/>
      <point x="555" y="0" type="line"/>
      <point x="370" y="254" type="line"/>
      <point x="545" y="505" type="line"/>
      <point x="387" y="505" type="line"/>
      <point x="289" y="349" type="line"/>
      <point x="285" y="349" type="line"/>
      <point x="191" y="505" type="line"/>
      <point x="30" y="505" type="line"/>
      <point x="205" y="256" type="line"/>
    </contour>
  </outline>
</glyph>
<glyph name="ordfeminine" format="2">
  <advance width="465"/>
  <unicode hex="00AA"/>
  <outline>
    <contour>
      <point x="58" y="157" type="line"/>
      <point x="400" y="157" type="line"/>
      <point x="400" y="256" type="line"/>
      <point x="58" y="256" type="line"/>
    </contour>
    <contour>
      <point x="182" y="311" type="curve" smooth="yes"/>
      <point x="243" y="311"/>
      <point x="272" y="340"/>
      <point x="286" y="369" type="curve"/>
      <point x="291" y="369" type="line"/>
      <point x="291" y="320" type="line"/>
      <point x="400" y="320" type="line"/>
      <point x="400" y="567" type="line" smooth="yes"/>
      <point x="400" y="646"/>
      <point x="337" y="713"/>
      <point x="234" y="713" type="curve" smooth="yes"/>
      <point x="142" y="713"/>
      <point x="93" y="684"/>
      <point x="55" y="640" type="curve"/>
      <point x="122" y="576" type="line"/>
      <point x="144" y="601"/>
      <point x="166" y="620"/>
      <point x="218" y="620" type="curve" smooth="yes"/>
      <point x="259" y="620"/>
      <point x="288" y="594"/>
      <point x="288" y="572" type="curve" smooth="yes"/>
      <point x="288" y="539" type="line"/>
      <point x="312" y="567" type="line"/>
      <point x="234" y="561" type="line" smooth="yes"/>
      <point x="95" y="550"/>
      <point x="49" y="502"/>
      <point x="49" y="429" type="curve" smooth="yes"/>
      <point x="49" y="362"/>
      <point x="102" y="311"/>
    </contour>
    <contour>
      <point x="214" y="405" type="curve" smooth="yes"/>
      <point x="181" y="405"/>
      <point x="157" y="416"/>
      <point x="157" y="440" type="curve" smooth="yes"/>
      <point x="157" y="478"/>
      <point x="201" y="485"/>
      <point x="244" y="488" type="curve" smooth="yes"/>
      <point x="312" y="493" type="line"/>
      <point x="288" y="518" type="line"/>
      <point x="288" y="479" type="line" smooth="yes"/>
      <point x="288" y="435"/>
      <point x="252" y="405"/>
    </contour>
  </outline>
</glyph>
<glyph name="paragraph" format="2">
  <advance width="586"/>
  <unicode hex="00B6"/>
  <outline>
    <contour>
      <point x="286" y="0" type="line"/>
      <point x="361" y="0" type="line"/>
      <point x="361" y="600" type="line"/>
      <point x="431" y="600" type="line"/>
      <point x="431" y="0" type="line"/>
      <point x="506" y="0" type="line"/>
      <point x="506" y="700" type="line"/>
      <point x="256" y="700" type="line" smooth="yes"/>
      <point x="122" y="700"/>
      <point x="40" y="636"/>
      <point x="40" y="510" type="curve" smooth="yes"/>
      <point x="40" y="384"/>
      <point x="122" y="318"/>
      <point x="256" y="318" type="curve" smooth="yes"/>
      <point x="286" y="318" type="line"/>
    </contour>
  </outline>
</glyph>
<glyph name="Thorn" format="2">
  <advance width="619"/>
  <unicode hex="00DE"/>
  <anchor x="300" y="0" name="bottom"/>
  <anchor x="300" y="700" name="top"/>
  <outline>
    <contour>
      <point x="80" y="0" type="line"/>
      <point x="220" y="0" type="line"/>
      <point x="220" y="124" type="line"/>
      <point x="326" y="124" type="line" smooth="yes"/>
      <point x="483" y="124"/>
      <point x="579" y="203"/>
      <point x="579" y="351" type="curve" smooth="yes"/>
      <point x="579" y="498"/>
      <point x="483" y="580"/>
      <point x="326" y="580" type="curve" smooth="yes"/>
      <point x="220" y="580" type="line"/>
      <point x="220" y="700" type="line"/>
      <point x="80" y="700" type="line"/>
    </contour>
    <contour>
      <point x="220" y="259" type="line"/>
      <point x="220" y="445" type="line"/>
      <point x="318" y="445" type="line" smooth="yes"/>
      <point x="394" y="445"/>
      <point x="437" y="416"/>
      <point x="437" y="350" type="curve" smooth="yes"/>
      <point x="437" y="283"/>
      <point x="394" y="259"/>
      <point x="318" y="259" type="curve" smooth="yes"/>
    </contour>
  </outline>
</glyph>
<glyph name="ogonekcomb" format="2">
  <unicode hex="0328"/>
  <anchor x="0" y="0" name="_ogonek"/>
  <outline>
    <contour>
      <point x="65" y="-220" type="curve" smooth="yes"/>
      <point x="83" y="-220"/>
      <point x="103" y="-219"/>
      <point x="124" y="-214" type="curve"/>
      <point x="103" y="-125" type="line"/>
      <point x="96" y="-127"/>
      <point x="88" y="-128"/>
      <point x="76" y="-128" type="curve" smooth="yes"/>
      <point x="49" y="-128"/>
      <point x="28" y="-110"/>
      <point x="28" y="-85" type="curve" smooth="yes"/>
      <point x="28" y="-44"/>
      <point x="58" y="-16"/>
      <point x="96" y="0" type="curve"/>
      <point x="74" y="6" type="line"/>
      <point x="23" y="17" type="line"/>
      <point x="0" y="0" type="line" smooth="yes"/>
      <point x="-47" y="-34"/>
      <point x="-72" y="-72"/>
      <point x="-71" y="-116" type="curve" smooth="yes"/>
      <point x="-69" y="-190"/>
      <point x="-17" y="-220"/>
    </contour>
  </outline>
</glyph>
<glyph name="therefore" format="2">
  <advance width="594"/>
  <unicode hex="2234"/>
  <outline>
    <contour>
      <point x="297" y="288" type="curve" smooth="yes"/>
      <point x="322" y="288"/>
      <point x="342" y="308"/>
      <point x="342" y="333" type="curve" smooth="yes"/>
      <point x="342" y="358"/>
      <point x="322" y="378"/>
      <point x="297" y="378" type="curve" smooth="yes"/>
      <point x="272" y="378"/>
      <point x="252" y="358"/>
      <point x="252" y="333" type="curve" smooth="yes"/>
      <point x="252" y="308"/>
      <point x="272" y="288"/>
    </contour>
    <contour>
      <point x="135" y="0" type="curve" smooth="yes"/>
      <point x="160" y="0"/>
      <point x="180" y="20"/>
      <point x="180" y="45" type="curve" smooth="yes"/>
      <point x="180" y="70"/>
      <point x="160" y="90"/>
      <point x="135" y="90" type="curve" smooth="yes"/>
      <point x="110" y="90"/>
      <point x="90" y="70"/>
      <point x="90" y="45" type="curve" smooth="yes"/>
      <point x="90" y="20"/>
      <point x="110" y="0"/>
    </contour>
    <contour>
      <point x="459" y="0" type="curve" smooth="yes"/>
      <point x="484" y="0"/>
      <point x="504" y="20"/>
      <point x="504" y="45" type="curve" smooth="yes"/>
      <point x="504" y="70"/>
      <point x="484" y="90"/>
      <point x="459" y="90" type="curve" smooth="yes"/>
      <point x="434" y="90"/>
      <point x="414" y="70"/>
      <point x="414" y="45" type="curve" smooth="yes"/>
      <point x="414" y="20"/>
      <point x="434" y="0"/>
    </contour>
  </outline>
</glyph>
<glyph name="approxequal" format="2">
  <advance width="596"/>
  <unicode hex="2248"/>
  <outline>
    <contour>
      <point x="65" y="154" type="line"/>
      <point x="140" y="184"/>
      <point x="216" y="184"/>
      <point x="291" y="154" type="curve" smooth="yes"/>
      <point x="363" y="125"/>
      <point x="442" y="124"/>
      <point x="517" y="154" type="curve"/>
      <point x="517" y="264" type="line"/>
      <point x="442" y="234"/>
      <point x="363" y="235"/>
      <point x="291" y="264" type="curve" smooth="yes"/>
      <point x="216" y="294"/>
      <point x="140" y="294"/>
      <point x="65" y="264" type="curve"/>
    </contour>
    <contour>
      <point x="65" y="367" type="line"/>
      <point x="140" y="397"/>
      <point x="216" y="397"/>
      <point x="291" y="367" type="curve" smooth="yes"/>
      <point x="363" y="338"/>
      <point x="442" y="337"/>
      <point x="517" y="367" type="curve"/>
      <point x="517" y="477" type="line"/>
      <point x="442" y="447"/>
      <point x="363" y="448"/>
      <point x="291" y="477" type="curve" smooth="yes"/>
      <point x="216" y="507"/>
      <point x="140" y="507"/>
      <point x="65" y="477" type="curve"/>
    </contour>
  </outline>
</glyph>
<glyph name="D.circled" format="2">
  <advance width="901"/>
  <unicode hex="24B9"/>
  <anchor x="454.508" y="120.0" name="bottom"/>
  <anchor x="316.8" y="354.0743" name="center"/>
  <anchor x="466.964" y="589.49" name="top"/>
  <outline>
    <contour>
      <point x="450" y="-50" type="curve" smooth="yes"/>
      <point x="672" y="-50"/>
      <point x="856" y="129"/>
      <point x="856" y="352" type="curve" smooth="yes"/>
      <point x="856" y="574"/>
      <point x="673" y="753"/>
      <point x="450" y="753" type="curve" smooth="yes"/>
      <point x="228" y="753"/>
      <point x="45" y="574"/>
      <point x="45" y="352" type="curve" smooth="yes"/>
      <point x="45" y="129"/>
      <point x="228" y="-50"/>
    </contour>
    <contour>
      <point x="450" y="27" type="curve" smooth="yes"/>
      <point x="272" y="27"/>
      <point x="129" y="173"/>
      <point x="129" y="352" type="curve" smooth="yes"/>
      <point x="129" y="530"/>
      <point x="272" y="676"/>
      <point x="450" y="676" type="curve" smooth="yes"/>
      <point x="629" y="676"/>
      <point x="772" y="530"/>
      <point x="772" y="352" type="curve" smooth="yes"/>
      <point x="772" y="173"/>
      <point x="628" y="27"/>
    </contour>
    <component base="D" xScale="0.692" yScale="0.6707" xOffset="213" yOffset="120"/>
  </outline>
</glyph>
<glyph name="rightWhiteSmallTriangle" format="2">
  <advance width="386"/>
  <unicode hex="25B9"/>
  <outline>
    <contour>
      <point x="90" y="208" type="line"/>
      <point x="356" y="362" type="line"/>
      <point x="90" y="515" type="line"/>
    </contour>
    <contour>
      <point x="146" y="418" type="line"/>
      <point x="251" y="362" type="line"/>
      <point x="146" y="306" type="line"/>
    </contour>
  </outline>
</glyph>
<glyph name="heartWhiteSuit" format="2">
  <advance width="832"/>
  <unicode hex="2661"/>
  <outline>
    <contour>
      <point x="416" y="-13" type="curve"/>
      <point x="618" y="102"/>
      <point x="827" y="294"/>
      <point x="827" y="508" type="curve" smooth="yes"/>
      <point x="827" y="622"/>
      <point x="736" y="713"/>
      <point x="622" y="713" type="curve" smooth="yes"/>
      <point x="503" y="713"/>
      <point x="427" y="620"/>
      <point x="420" y="531" type="curve"/>
      <point x="412" y="531" type="line"/>
      <point x="405" y="621"/>
      <point x="329" y="713"/>
      <point x="210" y="713" type="curve" smooth="yes"/>
      <point x="96" y="713"/>
      <point x="5" y="622"/>
      <point x="5" y="508" type="curve" smooth="yes"/>
      <point x="5" y="294"/>
      <point x="214" y="102"/>
    </contour>
    <contour>
      <point x="416" y="96" type="curve"/>
      <point x="256" y="194"/>
      <point x="109" y="342"/>
      <point x="109" y="493" type="curve" smooth="yes"/>
      <point x="109" y="562"/>
      <point x="158" y="622"/>
      <point x="226" y="622" type="curve" smooth="yes"/>
      <point x="298" y="622"/>
      <point x="341" y="586"/>
      <point x="382" y="452" type="curve"/>
      <point x="450" y="452" type="line"/>
      <point x="480" y="585"/>
      <point x="534" y="622"/>
      <point x="607" y="622" type="curve" smooth="yes"/>
      <point x="675" y="622"/>
      <point x="724" y="562"/>
      <point x="724" y="493" type="curve" smooth="yes"/>
      <point x="724" y="342"/>
      <point x="576" y="194"/>
    </contour>
  </outline>
</glyph>
<glyph name="sparkles" format="2">
  <advance width="724"/>
  <unicode hex="2728"/>
  <outline>
    <contour>
      <point x="139" y="275" type="curve"/>
      <point x="156" y="438"/>
      <point x="177" y="456"/>
      <point x="272" y="463" type="curve"/>
      <point x="177" y="474"/>
      <point x="156" y="490"/>
      <point x="139" y="651" type="curve"/>
      <point x="122" y="490"/>
      <point x="101" y="474"/>
      <point x="6" y="463" type="curve"/>
      <point x="101" y="456"/>
      <point x="122" y="438"/>
    </contour>
    <contour>
      <point x="272" y="-33" type="curve"/>
      <point x="289" y="130"/>
      <point x="310" y="147"/>
      <point x="405" y="155" type="curve"/>
      <point x="310" y="166"/>
      <point x="289" y="182"/>
      <point x="272" y="343" type="curve"/>
      <point x="255" y="182"/>
      <point x="234" y="166"/>
      <point x="139" y="155" type="curve"/>
      <point x="234" y="147"/>
      <point x="255" y="130"/>
    </contour>
    <contour>
      <point x="473" y="39" type="curve"/>
      <point x="504" y="337"/>
      <point x="543" y="369"/>
      <point x="718" y="384" type="curve"/>
      <point x="543" y="404"/>
      <point x="504" y="434"/>
      <point x="473" y="729" type="curve"/>
      <point x="442" y="434"/>
      <point x="403" y="404"/>
      <point x="228" y="384" type="curve"/>
      <point x="403" y="369"/>
      <point x="442" y="337"/>
    </contour>
  </outline>
</glyph>
<glyph name="fl" format="2">
  <advance width="635"/>
  <unicode hex="FB02"/>
  <anchor x="180" y="0" name="bottom_1"/>
  <anchor x="279" y="700" name="top_1"/>
  <anchor x="498" y="0" name="bottom_2"/>
  <anchor x="498" y="393" name="center_2"/>
  <anchor x="565" y="0" name="ogonek_2"/>
  <anchor x="499" y="700" name="top_2"/>
  <anchor x="616" y="700" name="topright_2"/>
  <anchor x="392" y="0" name="caret_1"/>
  <outline>
    <contour>
      <point x="21" y="385" type="line"/>
      <point x="555" y="385" type="line"/>
      <point x="565" y="505" type="line"/>
      <point x="21" y="505" type="line"/>
    </contour>
    <component base="f"/>
    <component base="l" xOffset="360"/>
  </outline>
</glyph>
<glyph name="C.ss10" format="2">
  <advance width="587"/>
  <anchor x="409" y="0" name="bottom"/>
  <anchor x="512" y="0" name="ogonek"/>
  <anchor x="409" y="700" name="top"/>
  <outline>
    <contour>
      <point x="405" y="-13" type="curve" smooth="yes"/>
      <point x="460" y="-13"/>
      <point x="508" y="-5"/>
      <point x="554" y="19" type="curve"/>
      <point x="565" y="181" type="line"/>
      <point x="521" y="145"/>
      <point x="469" y="129"/>
      <point x="407" y="129" type="curve" smooth="yes"/>
      <point x="272" y="129"/>
      <point x="187" y="221"/>
      <point x="187" y="349" type="curve" smooth="yes"/>
      <point x="187" y="475"/>
      <point x="266" y="571"/>
      <point x="405" y="571" type="curve" smooth="yes"/>
      <point x="467" y="571"/>
      <point x="521" y="552"/>
      <point x="564" y="508" type="curve"/>
      <point x="564" y="673" type="line"/>
      <point x="524" y="699"/>
      <point x="466" y="713"/>
      <point x="405" y="713" type="curve" smooth="yes"/>
      <point x="189" y="713"/>
      <point x="42" y="550"/>
      <point x="42" y="349" type="curve" smooth="yes"/>
      <point x="42" y="149"/>
      <point x="197" y="-13"/>
    </contour>
  </outline>
</glyph>
<glyph name="brevecomb.case" format="2">
  <anchor x="0" y="700" name="_top"/>
  <anchor x="0" y="807" name="top"/>
  <outline>
    <contour>
      <point x="0" y="732" type="curve" smooth="yes"/>
      <point x="89" y="732"/>
      <point x="150" y="785"/>
      <point x="150" y="849" type="curve"/>
      <point x="56" y="849" type="line"/>
      <point x="57" y="822"/>
      <point x="28" y="801"/>
      <point x="0" y="801" type="curve" smooth="yes"/>
      <point x="-28" y="801"/>
      <point x="-57" y="822"/>
      <point x="-56" y="849" type="curve"/>
      <point x="-150" y="849" type="line"/>
      <point x="-150" y="785"/>
      <point x="-88" y="732"/>
    </contour>
  </outline>
</glyph>
<glyph name="euro.tf" format="2">
  <advance width="596"/>
  <outline>
    <contour>
      <point x="366" y="27" type="curve" smooth="yes"/>
      <point x="473" y="27"/>
      <point x="553" y="64"/>
      <point x="606" y="128" type="curve"/>
      <point x="494" y="215" type="line"/>
      <point x="458" y="170"/>
      <point x="417" y="157"/>
      <point x="369" y="157" type="curve" smooth="yes"/>
      <point x="282" y="157"/>
      <point x="227" y="198"/>
      <point x="204" y="294" type="curve" smooth="yes"/>
      <point x="199" y="311" type="line"/>
      <point x="193" y="343"/>
      <point x="192" y="356"/>
      <point x="198" y="388" type="curve"/>
      <point x="204" y="406" type="line"/>
      <point x="228" y="502"/>
      <point x="282" y="543"/>
      <point x="366" y="543" type="curve" smooth="yes"/>
      <point x="409" y="543"/>
      <point x="466" y="531"/>
      <point x="508" y="487" type="curve"/>
      <point x="588" y="583" type="line"/>
      <point x="534" y="648"/>
      <point x="460" y="673"/>
      <point x="366" y="673" type="curve" smooth="yes"/>
      <point x="170" y="673"/>
      <point x="51" y="540"/>
      <point x="51" y="349" type="curve" smooth="yes"/>
      <point x="51" y="159"/>
      <point x="178" y="27"/>
    </contour>
    <contour>
      <point x="-46" y="237" type="line"/>
      <point x="353" y="237" type="line"/>
      <point x="400" y="322" type="line"/>
      <point x="12" y="322" type="line"/>
    </contour>
    <contour>
      <point x="-50" y="378" type="line"/>
      <point x="435" y="378" type="line"/>
      <point x="493" y="463" type="line"/>
      <point x="9" y="463" type="line"/>
    </contour>
  </outline>
</glyph>
<glyph name="f_i.ss11" format="2">
  <advance width="630"/>
  <anchor x="493" y="0" name="bottom_1"/>
  <anchor x="472" y="0" name="ogonek_1"/>
  <anchor x="493" y="505" name="top_1"/>
  <anchor x="372" y="0" name="caret_1"/>
  <outline>
    <contour>
      <point x="113" y="0" type="line"/>
      <point x="248" y="0" type="line"/>
      <point x="248" y="507" type="line" smooth="yes"/>
      <point x="248" y="562"/>
      <point x="279" y="595"/>
      <point x="337" y="595" type="curve" smooth="yes"/>
      <point x="395" y="595"/>
      <point x="425" y="561"/>
      <point x="425" y="504" type="curve"/>
      <point x="397" y="554" type="line"/>
      <point x="569" y="554" type="line"/>
      <point x="560" y="505" type="line"/>
      <point x="560" y="633"/>
      <point x="460" y="713"/>
      <point x="337" y="713" type="curve" smooth="yes"/>
      <point x="203" y="713"/>
      <point x="113" y="636"/>
      <point x="113" y="512" type="curve" smooth="yes"/>
    </contour>
    <contour>
      <point x="20" y="385" type="line"/>
      <point x="367" y="385" type="line"/>
      <point x="367" y="505" type="line"/>
      <point x="20" y="505" type="line"/>
    </contour>
    <component base="idotless" xOffset="355"/>
  </outline>
</glyph>
<glyph name="horn.alt_case" format="2">
  <advance width="600"/>
  <anchor x="180" y="700" name="_topright"/>
  <outline>
    <contour>
      <point x="143" y="602" type="line"/>
      <point x="269" y="595"/>
      <point x="343" y="658"/>
      <point x="343" y="749" type="curve" smooth="yes"/>
      <point x="343" y="770"/>
      <point x="338" y="799"/>
      <point x="333" y="814" type="curve"/>
      <point x="217" y="814" type="line"/>
      <point x="223" y="797"/>
      <point x="226" y="779"/>
      <point x="226" y="764" type="curve" smooth="yes"/>
      <point x="227" y="722"/>
      <point x="212" y="700"/>
      <point x="158" y="700" type="curve"/>
    </contour>
  </outline>
</glyph>
<glyph name="naira.tf" format="2">
  <advance width="596"/>
  <outline>
    <contour>
      <point x="57" y="30" type="line"/>
      <point x="187" y="30" type="line"/>
      <point x="187" y="318" type="line" smooth="yes"/>
      <point x="187" y="366"/>
      <point x="185" y="414"/>
      <point x="181" y="456" type="curve"/>
      <point x="184" y="456" type="line"/>
      <point x="191" y="435"/>
      <point x="207" y="398"/>
      <point x="221" y="374" type="curve" smooth="yes"/>
      <point x="429" y="30" type="line"/>
      <point x="539" y="30" type="line"/>
      <point x="539" y="670" type="line"/>
      <point x="409" y="670" type="line"/>
      <point x="409" y="388" type="line" smooth="yes"/>
      <point x="409" y="319"/>
      <point x="413" y="275"/>
      <point x="417" y="246" type="curve"/>
      <point x="413" y="246" type="line"/>
      <point x="406" y="268"/>
      <point x="396" y="307"/>
      <point x="381" y="333" type="curve" smooth="yes"/>
      <point x="182" y="670" type="line"/>
      <point x="57" y="670" type="line"/>
    </contour>
    <contour>
      <point x="7" y="317" type="line"/>
      <point x="589" y="317" type="line"/>
      <point x="589" y="402" type="line"/>
      <point x="7" y="402" type="line"/>
    </contour>
  </outline>
</glyph>
<glyph name="nine.numr" format="2">
  <advance width="344"/>
  <outline>
    <contour>
      <point x="70" y="313" type="line"/>
      <point x="167" y="313" type="line"/>
      <point x="277" y="477" type="line" smooth="yes"/>
      <point x="297" y="506"/>
      <point x="307" y="537"/>
      <point x="307" y="573" type="curve" smooth="yes"/>
      <point x="307" y="653"/>
      <point x="246" y="706"/>
      <point x="166" y="706" type="curve" smooth="yes"/>
      <point x="82" y="706"/>
      <point x="22" y="652"/>
      <point x="22" y="573" type="curve" smooth="yes"/>
      <point x="22" y="485"/>
      <point x="86" y="435"/>
      <point x="159" y="447" type="curve"/>
    </contour>
    <contour>
      <point x="164" y="513" type="curve" smooth="yes"/>
      <point x="144" y="513"/>
      <point x="108" y="529"/>
      <point x="108" y="573" type="curve" smooth="yes"/>
      <point x="108" y="608"/>
      <point x="134" y="628"/>
      <point x="166" y="628" type="curve" smooth="yes"/>
      <point x="199" y="628"/>
      <point x="220" y="606"/>
      <point x="220" y="573" type="curve" smooth="yes"/>
      <point x="220" y="538"/>
      <point x="199" y="513"/>
    </contour>
  </outline>
</glyph>
<glyph name="zero.lf" format="2">
  <advance width="674"/>
  <outline>
    <contour>
      <point x="337" y="-13" type="curve" smooth="yes"/>
      <point x="498" y="-13"/>
      <point x="609" y="109"/>
      <point x="609" y="259" type="curve" smooth="yes"/>
      <point x="609" y="439" type="line" smooth="yes"/>
      <point x="609" y="589"/>
      <point x="498" y="711"/>
      <point x="337" y="711" type="curve" smooth="yes"/>
      <point x="176" y="711"/>
      <point x="65" y="589"/>
      <point x="65" y="439" type="curve" smooth="yes"/>
      <point x="65" y="259" type="line" smooth="yes"/>
      <point x="65" y="109"/>
      <point x="176" y="-13"/>
    </contour>
    <contour>
      <point x="337" y="117" type="curve" smooth="yes"/>
      <point x="251" y="117"/>
      <point x="210" y="184"/>
      <point x="210" y="275" type="curve" smooth="yes"/>
      <point x="210" y="422" type="line" smooth="yes"/>
      <point x="210" y="523"/>
      <point x="251" y="581"/>
      <point x="337" y="581" type="curve" smooth="yes"/>
      <point x="423" y="581"/>
      <point x="464" y="523"/>
      <point x="464" y="422" type="curve" smooth="yes"/>
      <point x="464" y="275" type="line" smooth="yes"/>
      <point x="464" y="184"/>
      <point x="423" y="117"/>
    </contour>
  </outline>
</glyph>
